<?xml version="1.0" encoding="UTF-8"?>
<svg version="1.1" xmlns="http://www.w3.org/2000/svg" width="85" height="307">
<path d="M0 0 C0.99966797 -0.03738281 1.99933594 -0.07476563 3.02929688 -0.11328125 C12.61199763 -0.22535962 20.2487605 3.11350482 27.3359375 9.5625 C34.45727169 17.62176601 36.16879882 25.03222811 36.3125 35.4375 C36.36857422 36.93700195 36.36857422 36.93700195 36.42578125 38.46679688 C36.53785962 48.04949763 33.19899518 55.6862605 26.75 62.7734375 C18.69073399 69.89477169 11.28027189 71.60629882 0.875 71.75 C-0.62450195 71.80607422 -0.62450195 71.80607422 -2.15429688 71.86328125 C-11.73699763 71.97535962 -19.3737605 68.63649518 -26.4609375 62.1875 C-33.58227169 54.12823399 -35.29379882 46.71777189 -35.4375 36.3125 C-35.47488281 35.31283203 -35.51226562 34.31316406 -35.55078125 33.28320312 C-35.66285962 23.70050237 -32.32399518 16.0637395 -25.875 8.9765625 C-17.81573399 1.85522831 -10.40527189 0.14370118 0 0 Z " fill="#E1E1E1" transform="translate(42.0625,6.625)"/>
<path d="M0 0 C2.31 0 4.62 0 7 0 C7 8.25 7 16.5 7 25 C4.69 25 2.38 25 0 25 C0 16.75 0 8.5 0 0 Z " fill="#979797" transform="translate(39,228)"/>
<path d="M0 0 C2.31 0 4.62 0 7 0 C7 8.25 7 16.5 7 25 C4.69 25 2.38 25 0 25 C0 16.75 0 8.5 0 0 Z " fill="#979797" transform="translate(39,173)"/>
<path d="M0 0 C2.31 0 4.62 0 7 0 C7 4.29 7 8.58 7 13 C4.69 13 2.38 13 0 13 C0 8.71 0 4.42 0 0 Z " fill="#979797" transform="translate(39,283)"/>
<path d="M0 0 C2.31 0 4.62 0 7 0 C7 4.29 7 8.58 7 13 C4.69 13 2.38 13 0 13 C0 8.71 0 4.42 0 0 Z " fill="#979797" transform="translate(39,130)"/>
</svg>
